<svg width="333" height="407" viewBox="0 0 333 407" fill="none" xmlns="http://www.w3.org/2000/svg">
<path d="M-2.12342e-07 396.8C8.8 396.8 16 396.2 21.6 395C27.2 393.8 31.8 391.6 35.4 388.4C39 385.2 42 380.6 44.4 374.6C46.8 368.2 49.6 360.2 52.8 350.6C70 292.2 87.4 234 105 176C122.6 117.6 140.2 59.2 157.8 0.799973H178.2L306 396.8H332.4V407H189V396.8H229.2L190.8 276.2H86.4L82.2 288.2C80.2 294.2 77.8 301.8 75 311C72.2 320.2 69.4 329.4 66.6 338.6C64.2 347.8 62 356.2 60 363.8C58 371.4 57 376.6 57 379.4C57 384.2 58.8 387.8 62.4 390.2C66.4 392.6 71 394.4 76.2 395.6C81.4 396.4 86.6 396.8 91.8 396.8C97.4 396.8 101.8 396.8 105 396.8H106.2V407H-2.12342e-07V396.8ZM89.4 266H187.8L137.4 108.8L89.4 266Z" fill="white"/>
</svg>
