<svg width="405" height="424" viewBox="0 0 405 424" fill="none" xmlns="http://www.w3.org/2000/svg">
<g clip-path="url(#clip0_7_16)">
<path d="M305.694 23.3884H310.54H316H372.04V423.388H300.04V99.5L300.04 91.5L295.256 90.5L288 112L277 107L299.135 42.5L305.694 23.3884Z" fill="white"/>
<path d="M44.04 23.3884H61.04L61.54 69.3884L67.04 83.3884L61.04 84.8884V423.388H49.04V67.8884L48.04 49.8884L46.54 32.8884L44.04 23.3884Z" fill="white"/>
<path d="M44.2146 23.2489L117.94 22.5584L219.953 312.391L211.072 337.5L183.197 416.3L44.2146 23.2489Z" fill="white"/>
<path d="M47.54 395.388C47.94 394.988 48.7067 381.888 49.04 375.388H60.54C60.54 379.222 60.64 386.988 61.04 387.388C61.54 387.888 60.04 396.888 65.04 403.888C69.04 409.488 81.7067 412.222 87.54 412.888L112.04 413.388V423.388H1.04C-0.96 419.555 0.54 412.388 0.54 412.388C6.04 412.888 20.54 412.388 33.04 410.888C45.54 409.388 47.04 395.888 47.54 395.388Z" fill="white" stroke="black"/>
<rect x="266.04" y="412.388" width="138" height="11" fill="white"/>
<rect x="363.04" y="23.3884" width="41" height="10" fill="white"/>
<rect x="3.04004" y="23.3884" width="70" height="10" fill="white"/>
</g>
<defs>
<clipPath id="clip0_7_16">
<rect width="404.04" height="423.39" fill="white"/>
</clipPath>
</defs>
</svg>
